<svg xmlns="http://www.w3.org/2000/svg" version="1.1" viewBox="-5.0 -10.0 110.0 135.0">
 <path d="m9.5625 62.047c-0.13672 0.58203-0.19922 1.2148-0.050781 2.2031-0.13281 5.1875 6.1055 8.2148 10.09 4.5078 6.3633 1.5039 10.977 1.0938 17 0.44922 1.7461 6.3711 10.156 7.9336 14.031 2.4297 0.64453-0.63281 1.1953-1.3555 1.6172-2.168 0.57422-1.1172 0.87109-2.3633 0.90234-3.625 5.0352-1.2344 9.0547-3.3477 14.012-3.7383-2.5156 3.5898-4.3164 7.5742-4.9883 12.012-0.19922 0.035156-0.40234 0.085937-0.61719 0.17969-9.9688 4.2188-13.859 6.3789-15.801 7.2852-0.58594 0.23047-0.70312 0.44141-0.76172 0.96094-0.10547 0.5625 0.5 0.78516 0.89844 0.93359l2.2461 1.0234c1.6523 0.75 3.2109 1.457 4.5039 2.082l0.007813 3.9492c0 0.87891 0.62891 1.6367 1.4883 1.8047 5.8086 1.1172 12.098 1.4023 17.562-0.98828 0.66016-0.28516 1.082-0.94531 1.082-1.6836v-2.8047l7.6172-3.4023c0.57031-0.25781 0.57812-1.0352 0.019531-1.3164-5.6602-2.8906-15.871-7.5508-17.234-7.9609 0.69141-4.457 2.5742-8.4844 5.2656-12.148 6.3359-0.14062 12.195 2.5938 16.09 7.293-0.4375 0.42188-0.75391 0.94141-0.91406 1.5117-1.4961 2.9609 1.7617 6.0859 4.6562 4.4531 0.80859-0.45703 1.3555-1.1992 1.5859-2.0273 1.4609-2.8906-1.6133-5.9805-4.5156-4.5156-3.9297-4.7617-9.7812-7.6016-16.129-7.7109 3.418-4.4375 10.473-10.973 10.34-10.844 3.3398 1.3516 7.2109 0.35547 9.4102-2.7578 2.8633-2.7891 3.3945-7.1484 1.1367-10.625 2.0508-4.3594 2.3398-8.3008 0.83203-11.723-0.37891-0.84766-0.83203-1.5977-1.2812-2.1484 1.3672-1.9805 1.5938-4.7617 0.27344-7.1211-2.7734-4.8672-10.137-4.6523-12.293 1.0195-2.832-0.45703-5.9883-0.58984-9.3984-0.39844 1.0039-7.0156-6.418-11.887-12.426-8.5117-2.8828 1.6289-4.418 4.6367-4.2734 7.7344-0.16406 1.2344-0.023437 2.5156 0.43359 3.7305-3.0039 0.79297-5.9648 1.75-8.8359 2.8281 1.0977-2.0391 1.0859-1.9453 1.1055-2.0977 0.089844-0.625-0.070312-1.1914-0.66406-1.3203-0.21875-0.22266-0.49219-0.38672-0.83984-0.29688l-5.2109 1.4297c-3.4336-2.6367-3.2461-2.9492-4.0586-2.8906l-0.15625-0.125c-0.33203-0.26562-0.93359-0.027344-1.0039 0.41797-0.89844 4.8164-0.64062 4.9297-1.125 5.1992l-4.7695 2.6641c-0.5625 0.3125-0.29688 0.75 0.011719 1.0781 0.003906 0.19922 0.042968 0.38281 0.12891 0.48047 0.25391 0.51953 1 0.47656 4.6484 1.7773-2.7266 1.6094-5.3164 3.3633-7.7188 5.2266-5.0469-6.2344-15.254-2.5312-14.91 5.6719-0.36719 2.6523 0.61328 5.3555 2.793 7.1484-0.011719 0.019531-0.023438 0.035157-0.035156 0.054688-2.9297 4.7891-4.6055 10.625-1.7773 15.41zm69.902 20.734-6.6836 2.9883c-0.023438-1.9297 0.054688-2.1758-0.082031-2.5859-0.54297-1.6836-2.457-2.9609-5.3906-3.5938-0.64844-0.13672-0.85547 0.83594-0.21094 0.97656 2.5703 0.55469 4.2188 1.5938 4.6484 2.9258 0.0625 0.18359 0.023437 0.066406 0.035156 6.1758 0 0.33203-0.19531 0.64062-0.48438 0.76562-4.4727 1.957-10.027 2.2578-16.973 0.92188-0.39062-0.074219-0.67578-0.42188-0.67578-0.82422 0-0.47656-0.015626-6.6016-0.015626-6.2539 0.34375-2.5117 4.4141-3.8555 8.2969-4.0742 0.63672-0.035156 0.63672-1.0234-0.058594-1-3.9766 0.22656-8.7812 1.6523-9.2344 5.0078l0.003906 1.2617c-1.2109-0.57812-2.6133-1.2148-4.0859-1.8828-2.4805-1.125-2.2109-1.0156-2.4102-1.0859 1.1328-0.44531 4.6133-2.5469 15.805-7.2852 0.42578-0.17969 0.74219-0.1875 1.125-0.023438 4.8281 2.0898 9.6562 4.1719 16.391 7.5859zm-65.008-14.188c-2.957-0.82422-4.5-3.8555-3.9219-6.3047 0.097656-0.13672 0.13281-0.28906 0.082032-0.42969 1.5312-5.0586 7.8203-5.4102 10.129-1.3008 2.3789 4.1758-1.5117 9.3711-6.2891 8.0352zm33.949 3.5078c-3.5859 2.0195-8.0898 0.73828-10.094-2.8203-3.1914-5.7812 2.125-12.531 8.4375-10.777 1.9062 0.53125 3.4922 1.7734 4.4648 3.5 1.9609 3.457 0.84766 8-2.8086 10.098zm41.305-27.316v0.003906c-1.6406 3.2773-5.6406 4.9727-9.2891 3.5547-5.8164-2.2734-6.3984-10.289-0.97266-13.363 1.1562-0.65234 2.418-0.96094 3.6562-0.96094 5.5156 0.003907 9.0938 5.8906 6.6055 10.766zm-10.129-29.398c2.5938-3.0234 7.4688-2.6055 9.4805 0.92578 0.97266 1.7305 1.0039 3.8047 0.085938 5.5469-2.1445 4.0547-7.9414 4.1992-10.215 0.17969-0.74219-1.3281-0.94141-2.875-0.5625-4.3555h-0.003906c0.11328-0.26562 0.3125-1.2266 1.2148-2.2969zm-23.277-6.5898c6.3164-3.5469 13.559 3.1992 10.246 9.8359-2.7109 5.2344-10.25 5.3945-13.07 0.26172-1.9531-3.4453-0.86328-8.0156 2.8242-10.098zm-28.887 17.441 4.6992-2.6367c0.3125-0.17578 0.51953-0.46484 0.56641-0.79297l0.71484-4.7109-0.49609-0.074218 0.67188-0.011719 3.6406 2.957c0.25391 0.20703 0.60156 0.27734 0.96094 0.1875l5.0898-1.3477c0 0.027344 0 0.054687-0.003906 0.089844l-1.7852 3.2812c-0.32031 0.58594 0.56641 1.0547 0.87891 0.47656l0.046875-0.085938c5.1367-2.0117 8.875-2.9297 9.9688-3.25 2.1094 4.125 7.1055 5.4062 10.891 3.2773 1.0586-0.59766 1.9062-1.4141 2.5625-2.3477 1.207-1.1758 1.8594-2.4336 2.2266-3.8047 3.3789-0.20312 6.4961-0.082031 9.2891 0.35938-0.15234 0.76172-0.19531 1.5312-0.089844 2.2852-0.23047 5.8984 7.2539 8.9453 11.117 4.2734 0.23047-0.19531 0.42969-0.41406 0.625-0.63281 2.668 3.6172 2.2344 8.0859 0.41016 12.199-2.5898-2.9805-6.9141-3.8008-10.449-1.8164-2.8906 1.6367-4.4258 4.7383-4.2578 7.7227-0.41406 3.082 0.96094 6.1836 3.8984 7.8906-3.7852 3.6562-7.6484 7.25-10.664 11.328-5.4766 0.21484-9.3789 2.3945-14.82 3.7656-0.11719-1.168-0.45703-2.3008-1.0312-3.3086-1.1016-1.957-2.9023-3.3672-5.0703-3.9688-5.5273-1.5391-10.926 2.793-10.656 8.5352-0.09375 0.71094-0.066406 1.4336 0.039063 2.1523-2.5547 0.25781-5.0117 0.69531-9.2852 0.54688-2.4102-0.10156-4.5977-0.38281-6.6289-0.84375 3.6133-3.4766 2.0195-9.6016-2.8008-10.945-3.082-0.85938-6.3945 0.62891-7.6992 3.707-1.9961-4.3555-0.28906-9.4492 2.2031-13.531 3.4453 2.1719 8.1211 1.4961 10.664-2.125 2.8906-2.8477 3.3164-7.1211 1.2227-10.461 2.3984-1.8594 4.9883-3.6133 7.7578-5.25 0.023437 0.13672 0.70703 4.168 0.66406 3.9102 0.13281 0.83203 1.2266 1.0859 1.8398 0.44141l3.6016-3.75c0.13281-0.13281 0.23828-0.023438 5.2461 0.17187 0.89453 0.023438 1.4883-0.88672 1.0508-1.5859l-2.0078-3.1953c-0.35156-0.5625-1.1992-0.027343-0.84766 0.53125l2 3.1602c-0.046875 0.20312-0.49219 0.007812-5.2773-0.13672-0.29688-0.003906-0.65625 0.12109-0.88281 0.35547l-3.6055 3.7539c-0.058594 0.0625-0.13281 0.058594-0.13281 0.074219l-0.73828-4.3477c0.22266-0.34375-0.019531-0.76172-0.41406-0.76172-0.44922-0.34766 0.37109 0.085937-4.8945-1.6875 0.003907-0.003907 0-0.015625-0.007812-0.023438zm-17.559 10.781c1.7266-6.2383 10.32-7.4062 13.566-1.6172 2 3.5547 0.78516 8.043-2.8086 10.102-5.7305 3.2578-12.59-2.1289-10.758-8.4844z"/>
 <path d="m63.402 16.613c-0.007813 0.27734 0.20703 0.50781 0.48438 0.51562h0.015625c0.26953 0 0.49219-0.21484 0.5-0.48438 0.082031-2.668-1.1992-5.3164-3.3398-6.9062-0.53125-0.39844-1.125 0.40625-0.59766 0.80078 1.8867 1.4023 3.0117 3.7266 2.9375 6.0742z"/>
 <path d="m86.555 41.816c-0.89844 1.3359-2.5352 2.2305-4.082 2.2578-0.65625 0.015625-0.64453 1 0.011719 1h0.011719c2.0039-0.039063 3.8828-1.1992 4.8945-2.6992 0.36328-0.54688-0.46094-1.1094-0.83594-0.55859z"/>
 <path d="m49.18 66.801c-0.67578 1.6406-2.6328 2.6523-4.3594 2.2539-0.64453-0.15234-0.86719 0.82812-0.22266 0.97656 2.2031 0.5 4.6602-0.79297 5.5078-2.8477 0.25391-0.61328-0.67578-0.98828-0.92578-0.38281z"/>
 <path d="m16.832 60.023c-0.63672-0.19141-0.92188 0.76172-0.29297 0.95703 0.57422 0.17578 1.0469 0.69141 1.1758 1.2812 0.14062 0.64844 1.1172 0.4375 0.97656-0.21094-0.20312-0.94922-0.93359-1.7422-1.8594-2.0273z"/>
 <path d="m19.355 44.605c0.64844-0.16016 0.39062-1.1367-0.24219-0.96875-2.8516 0.70703-5.2109-0.52344-6.0117-2.4062-0.25781-0.60547-1.1797-0.21875-0.91797 0.39062 0.98438 2.3203 3.8125 3.8203 7.1719 2.9844z"/>
 <path d="m84.027 16.047c1.3242 0.86719 2.3047 2.2422 2.6875 3.7734 0.16016 0.64453 1.1328 0.40234 0.96875-0.24219-0.44531-1.7734-1.5781-3.3672-3.1094-4.3672-0.55859-0.36328-1.0977 0.47656-0.54688 0.83594z"/>
 <path d="m90.039 80.547-5.1367-0.45703c-0.67578-0.046875-0.73438 0.94141-0.089844 0.99609l5.1367 0.45703c0.66797 0.054687 0.74219-0.9375 0.089843-0.99609z"/>
 <path d="m89.688 86.938c-2.0039-1.1328-3.9531-2.4102-5.7969-3.7891-0.52734-0.40234-1.1289 0.40234-0.59766 0.80078 1.875 1.4062 3.8594 2.7031 5.9023 3.8594 0.57813 0.32422 1.0664-0.54688 0.49219-0.87109z"/>
 <path d="m81.801 85.574c-0.28906-0.59766-1.1875-0.16016-0.90234 0.43359 1.1641 2.4258 1.9062 4.0195 2.7227 5.7227 0.28516 0.59375 1.1875 0.16406 0.90234-0.43359-0.96875-2.0234-1.7266-3.6445-2.7227-5.7227z"/>
<text x="0.0" y="117.5" font-size="5.0" font-weight="bold" font-family="Arbeit Regular, Helvetica, Arial-Unicode, Arial, Sans-serif" fill="#000000">Created by Vectors Market</text><text x="0.0" y="122.5" font-size="5.0" font-weight="bold" font-family="Arbeit Regular, Helvetica, Arial-Unicode, Arial, Sans-serif" fill="#000000">from Noun Project</text></svg>