<svg xmlns="http://www.w3.org/2000/svg" version="1.1" viewBox="-5.0 -10.0 110.0 135.0">
 <path d="m45.852 48.16c0-0.28125-0.050781-0.57812-0.12109-0.87891v-0.03125c-0.050781-0.16016-0.10938-0.33984-0.19141-0.53906-0.35937-0.92188-1.0117-1.6914-1.8711-2.1992-0.87109-0.53906-1.8789-0.78125-2.8789-0.69922 0.078126-0.92969-0.10937-1.8789-0.57031-2.7109-0.62109-1.1289-1.6289-1.9297-2.8398-2.2383-0.30859-0.089843-0.62891-0.12891-0.91016-0.14062-1.8086-0.050781-3.5898 0.69922-4.8984 2.0703-0.46875 0.48828-0.89844 1-1.2695 1.5195v-8.4219c2.0898-0.57031 3.6289-2.4609 3.6289-4.7188 0-2.2617-1.6016-4.2305-3.75-4.7617v-1.8203c0-1.1797 0.96094-2.1406 2.1406-2.1406 2.4688 0 4.4688-2.0117 4.4688-4.4688v-0.44141c0-3.0508-2.4805-5.5391-5.5391-5.5391h-1.6211c-3.0508 0-5.5391 2.4805-5.5391 5.5391 0 0.64063 0.51953 1.1719 1.1602 1.1719s1.1719-0.51953 1.1719-1.1719c0-1.7695 1.4414-3.2109 3.2109-3.2109h1.6211c1.7695 0 3.2109 1.4414 3.2109 3.2109v0.44141c0 1.1797-0.96094 2.1406-2.1406 2.1406-2.4688 0-4.4688 2.0117-4.4688 4.4688v1.8203c-2.1406 0.53125-3.75 2.4492-3.75 4.7617 0 2.3086 1.6602 4.3086 3.8711 4.7891v8.6992c-0.44141-0.64062-0.92969-1.2617-1.4883-1.8516-1.3008-1.3711-3.0781-2.1289-4.8906-2.0898-0.28906 0-0.58984 0.050781-0.89844 0.12891-1.2188 0.30859-2.2383 1.1094-2.8594 2.2305-0.46094 0.82812-0.64844 1.7695-0.57812 2.6992-0.92969-0.070313-1.8789 0.12891-2.7109 0.57812-1.1211 0.62109-1.9219 1.6406-2.2305 2.8594-0.078124 0.30859-0.12109 0.62109-0.12891 0.89844-0.039062 1.8008 0.71094 3.5781 2.0781 4.8906 1.1484 1.0898 2.4102 1.9297 3.7383 2.5312-0.69922 0.30859-1.3789 0.69141-2.0391 1.1484-0.55859 0.37891-1.1016 0.82031-1.6094 1.3008-1.3789 1.2891-2.1602 3.0586-2.1406 4.8594 0 0.30078 0.039062 0.60938 0.12109 0.89844 0.30078 1.2305 1.0781 2.25 2.1992 2.8906 0.82031 0.46875 1.7695 0.67188 2.6992 0.60938-0.089843 0.92969 0.10156 1.8789 0.55078 2.7109 0.60938 1.1289 1.6094 1.9297 2.8203 2.2617 0.28906 0.078125 0.58984 0.12891 0.91016 0.14844h0.21875c1.7188 0 3.4219-0.73047 4.6914-2.0312 0.5-0.51953 0.94141-1.0586 1.3516-1.6211v6.9102c-0.30859 0.12109-0.60156 0.30078-0.87109 0.53906-1.5781 1.4609-3.4609 3.7812-3.4609 6.5312s1.8789 5.0703 3.4609 6.5312c0.53125 0.48828 1.1992 0.73828 1.8594 0.73828 0.66016 0 1.3281-0.25 1.8594-0.73828 1.5781-1.4609 3.4609-3.7812 3.4609-6.5312s-1.8789-5.0703-3.4609-6.5312c-0.17188-0.14844-0.35156-0.26953-0.53125-0.37891v-7.3203c0.41016 0.60156 0.85156 1.1797 1.3711 1.7383 1.2695 1.3516 3 2.1289 4.7617 2.1289h0.10938c0.30078 0 0.60156-0.050781 0.91016-0.12109 2.1719-0.53906 3.6484-2.6484 3.4805-4.9102 0.94141 0.078125 1.8906-0.10938 2.7188-0.57031 1.1289-0.60937 1.9219-1.6211 2.2383-2.8203 0.089844-0.32031 0.14062-0.62891 0.14062-0.92969 0.058594-1.8008-0.69141-3.5781-2.0508-4.8984-0.35938-0.35156-0.73047-0.67188-1.0781-0.94922-0.83984-0.67188-1.7305-1.2109-2.6484-1.6289 1.3086-0.58984 2.5508-1.4219 3.6797-2.4805 1.3789-1.2891 2.1406-3.0703 2.1094-4.8906zm-12.07 7.2891v0.17188c0 0.12891 0 0.23047-0.019531 0.33984-0.058594 0.78125-0.32031 1.5312-0.75 2.1914-0.17969 0.28125-0.37891 0.53125-0.62891 0.76953-0.87109 0.87109-2.0312 1.3711-3.2695 1.3984h-0.039062-0.10938-0.03125c-1.25-0.019531-2.4219-0.51953-3.3008-1.3984-0.25-0.23828-0.44922-0.5-0.62891-0.78125-0.42188-0.64062-0.67969-1.3984-0.75-2.1797 0-0.089844-0.011718-0.19141-0.019531-0.28906v-0.23047c0.03125-1.2305 0.53125-2.3906 1.3984-3.2617 0.78125-0.78125 1.7812-1.2617 2.8789-1.3711h0.039062c0.10938-0.019532 0.23047-0.019532 0.33984-0.03125h0.03125 0.14062 0.019531c0.10938 0 0.23828 0.011718 0.39062 0.019531h0.019532c1.0781 0.10938 2.1016 0.60156 2.8711 1.3711 0.85938 0.85938 1.3516 2.0117 1.3906 3.2383v0.03125zm-7.3516-26.281c0-1.4219 1.1602-2.5781 2.5781-2.5781 1.4219 0 2.5781 1.1602 2.5781 2.5781 0 1.4219-1.1602 2.5781-2.5781 2.5781-1.4219 0-2.5781-1.1602-2.5781-2.5781zm-11.922 19.031c0-0.078125 0.011719-0.19922 0.058594-0.37891 0.14844-0.60156 0.53906-1.0898 1.1016-1.3984 0.60156-0.32812 1.3086-0.39844 1.9492-0.19141 0.55078 0.17969 0.78125 0.26172 0.82031 0.28125 0.42969 0.17188 0.92188 0.070312 1.25-0.26172 0.32812-0.32812 0.42969-0.82031 0.26172-1.25-0.019531-0.058594-0.12109-0.35938-0.26953-0.82031-0.21094-0.64844-0.14063-1.3594 0.19141-1.9492 0.30859-0.55859 0.80859-0.94922 1.3984-1.1016 0.17188-0.039062 0.30078-0.058594 0.37891-0.058594 1.1602-0.03125 2.3008 0.46875 3.1406 1.3594 1.7617 1.8398 2.7305 3.9297 2.9102 6.2109-1.3906 0.26172-2.6992 0.92188-3.6992 1.9297-1.0195 1.0195-1.6797 2.3008-1.9492 3.6992-2.2695-0.17969-4.3398-1.1484-6.1797-2.8984-0.89062-0.85156-1.3906-2-1.3594-3.1484zm10.262 20.539c-0.87109 0.87891-2.0117 1.3711-3.1484 1.3281-0.12891 0-0.25-0.03125-0.37109-0.058594h-0.019531c-0.58984-0.17187-1.0898-0.55859-1.3906-1.1211-0.32031-0.60156-0.37891-1.3086-0.16016-1.9609 0.21875-0.64844 0.26953-0.78906 0.28125-0.82031 0.17969-0.44141 0.078124-0.94141-0.25-1.2812-0.33984-0.32812-0.82813-0.42969-1.2695-0.25-0.058594 0.03125-0.32031 0.10156-0.51953 0.17188l-0.28125 0.089844c-0.64844 0.19922-1.3594 0.12109-1.9492-0.21094-0.55078-0.30859-0.94141-0.82031-1.0898-1.4219-0.03125-0.12891-0.050781-0.26172-0.050781-0.37891-0.011719-1.1406 0.48828-2.2812 1.3906-3.1211 0.42969-0.39844 0.89062-0.76953 1.3516-1.0898 1.4688-1.0195 3.0703-1.6016 4.7617-1.7305 0.17187 0.89844 0.51172 1.7695 1.0117 2.5195 0.26172 0.41016 0.57812 0.80078 0.94141 1.1602 1.0312 1.0312 2.3203 1.6992 3.7383 1.9609-0.19922 2.2891-1.1914 4.3711-2.9688 6.2109zm7.0117 13.988c0 2.0117-1.6992 3.8789-2.7109 4.8203-0.16016 0.14844-0.41016 0.14844-0.57031 0-1.0117-0.94141-2.7109-2.8086-2.7109-4.8203 0-2.0117 1.6992-3.8789 2.7109-4.8203 0.078125-0.070312 0.17969-0.10938 0.28125-0.10938s0.19922 0.039063 0.28125 0.10938c1.0117 0.94141 2.7109 2.8086 2.7109 4.8203zm10.398-22.941c0.89062 0.85938 1.3789 2.0117 1.3398 3.1484v0.019531c0 0.070313-0.011719 0.19141-0.058593 0.35938-0.16016 0.58984-0.55078 1.0781-1.1016 1.3906-0.60156 0.32812-1.3203 0.39062-1.9609 0.17969-0.58984-0.19922-0.75-0.25-0.78906-0.26953-0.42969-0.19141-0.92969-0.10156-1.2695 0.23047-0.33984 0.32031-0.44922 0.82812-0.28125 1.2695 0.019531 0.050781 0.10156 0.26953 0.26172 0.80859 0.050782 0.17188 0.089844 0.33984 0.10156 0.51953 0.10938 1.1719-0.62891 2.2617-1.7109 2.5312-0.14063 0.03125-0.26953 0.050782-0.39063 0.050782-1.1406 0.019531-2.2812-0.48047-3.1289-1.3906-1.1406-1.2188-1.9609-2.5586-2.4219-3.9805-0.23047-0.69141-0.35938-1.4102-0.42188-2.1484 1.3906-0.26172 2.6719-0.92969 3.6914-1.9492 0.35938-0.35938 0.67969-0.75 0.92969-1.1484 0.51172-0.78125 0.85156-1.6602 1.0195-2.5781 1.9102 0.16016 3.6797 0.87891 5.2812 2.1484 0.30078 0.23047 0.60938 0.5 0.91016 0.80078zm-0.039063-8.4414c-1.8281 1.7305-3.8984 2.6992-6.1602 2.8789-0.26172-1.3906-0.92969-2.6797-1.9492-3.6992-1.0117-1.0117-2.3086-1.6602-3.6992-1.9297 0.17969-2.2812 1.1484-4.3711 2.9219-6.2188 0.85156-0.89062 2-1.3906 3.1719-1.3516 0.10156 0 0.21875 0.019531 0.35938 0.058593 0.60156 0.16016 1.0898 0.55078 1.3984 1.1094 0.32031 0.60156 0.39062 1.3086 0.17188 1.9609-0.14062 0.44141-0.23828 0.73828-0.26953 0.80859-0.17188 0.42969-0.070313 0.92187 0.26172 1.25 0.32812 0.32812 0.82031 0.42969 1.2617 0.26953 0.019531 0 0.16016-0.058594 0.80859-0.26172 0.67188-0.21094 1.4414-0.12109 2.0508 0.26172 0.42969 0.26172 0.73828 0.62891 0.92188 1.0781v0.03125c0.039063 0.070312 0.070313 0.16016 0.089844 0.23828 0.03125 0.14062 0.050781 0.26953 0.050781 0.37891 0.019531 1.1484-0.48047 2.3008-1.3789 3.1406z"/>
 <path d="m87.82 48.16c0-0.28125-0.050781-0.57812-0.12109-0.87891v-0.03125c-0.050781-0.16016-0.10938-0.33984-0.19141-0.53906-0.35937-0.92188-1.0117-1.6914-1.8711-2.1992-0.87109-0.53906-1.8789-0.78125-2.8789-0.69922 0.078126-0.92969-0.10937-1.8789-0.57031-2.7109-0.62109-1.1289-1.6289-1.9297-2.8398-2.2383-0.30859-0.089843-0.62891-0.12891-0.91016-0.14062-1.8086-0.050781-3.5898 0.69922-4.8984 2.0703-0.46875 0.48828-0.89844 1-1.2695 1.5195v-8.4219c2.0898-0.57031 3.6289-2.4609 3.6289-4.7188 0-2.2617-1.6016-4.2305-3.75-4.7617v-1.8203c0-1.1797 0.96094-2.1406 2.1406-2.1406 2.4688 0 4.4688-2.0117 4.4688-4.4688v-0.44141c0-3.0508-2.4805-5.5391-5.5391-5.5391h-1.6211c-3.0508 0-5.5391 2.4805-5.5391 5.5391 0 0.64063 0.51953 1.1719 1.1602 1.1719s1.1719-0.51953 1.1719-1.1719c0-1.7695 1.4414-3.2109 3.2109-3.2109h1.6211c1.7695 0 3.2109 1.4414 3.2109 3.2109v0.44141c0 1.1797-0.96094 2.1406-2.1406 2.1406-2.4688 0-4.4688 2.0117-4.4688 4.4688v1.8203c-2.1406 0.53125-3.75 2.4492-3.75 4.7617 0 2.3086 1.6602 4.3086 3.8711 4.7891v8.6992c-0.44141-0.64062-0.92969-1.2617-1.4883-1.8516-1.3008-1.3711-3.0781-2.1289-4.8906-2.0898-0.28906 0-0.58984 0.050781-0.89844 0.12891-1.2305 0.30859-2.2383 1.1094-2.8594 2.2305-0.46094 0.82812-0.64844 1.7695-0.57812 2.6992-0.92969-0.070313-1.8789 0.12891-2.7109 0.57812-1.1211 0.62109-1.9219 1.6406-2.2305 2.8594-0.078124 0.30859-0.12109 0.62109-0.12891 0.89844-0.039062 1.8008 0.71094 3.5781 2.0781 4.8906 1.1484 1.0898 2.4102 1.9297 3.7383 2.5312-0.69922 0.30859-1.3789 0.69141-2.0391 1.1484-0.55859 0.37891-1.1016 0.82031-1.6094 1.3008-1.3789 1.2891-2.1602 3.0586-2.1406 4.8594 0 0.30078 0.039062 0.60938 0.12109 0.89844 0.30078 1.2305 1.0781 2.25 2.1992 2.8906 0.82031 0.46875 1.7617 0.67969 2.6992 0.60938-0.089843 0.92969 0.10156 1.8789 0.55078 2.7109 0.60938 1.1289 1.6094 1.9297 2.8281 2.2617 0.28906 0.078125 0.58984 0.12891 0.91016 0.14844h0.21875c1.7188 0 3.4219-0.73047 4.6914-2.0312 0.5-0.51953 0.94141-1.0586 1.3516-1.6211v6.9102c-0.30859 0.12109-0.60156 0.30078-0.87109 0.53906-1.5781 1.4609-3.4609 3.7812-3.4609 6.5312s1.8789 5.0703 3.4609 6.5312c0.53125 0.48828 1.1992 0.73828 1.8594 0.73828s1.3281-0.25 1.8594-0.73828c1.5781-1.4609 3.4609-3.7812 3.4609-6.5312s-1.8789-5.0703-3.4609-6.5312c-0.17188-0.14844-0.35156-0.26953-0.53125-0.37891v-7.3203c0.41016 0.60156 0.85156 1.1797 1.3711 1.7383 1.2695 1.3516 3 2.1289 4.7617 2.1289h0.10938c0.30078 0 0.60156-0.050781 0.91016-0.12109 2.1719-0.53906 3.6484-2.6484 3.4805-4.9102 0.94141 0.078125 1.8906-0.10938 2.7188-0.57031 1.1289-0.60937 1.9219-1.6211 2.2383-2.8203 0.089844-0.32031 0.14063-0.62891 0.14063-0.92969 0.058593-1.8008-0.69141-3.5781-2.0508-4.8984-0.35938-0.35156-0.73047-0.67188-1.0781-0.94922-0.83984-0.67188-1.7305-1.2109-2.6484-1.6289 1.3086-0.58984 2.5508-1.4219 3.6797-2.4805 1.3789-1.2891 2.1484-3.0703 2.1094-4.8906zm-12.07 7.2891v0.17969c0 0.12891 0 0.23047-0.019531 0.33984-0.058594 0.78125-0.32031 1.5312-0.75 2.1914-0.17969 0.28125-0.37891 0.53125-0.62891 0.76953-0.87109 0.87109-2.0312 1.3711-3.2695 1.3984h-0.039062-0.10938-0.03125c-1.25-0.019531-2.4219-0.51953-3.3008-1.3984-0.25-0.23828-0.44922-0.5-0.62891-0.78125-0.42188-0.64063-0.67969-1.3984-0.75-2.1797 0-0.089844-0.011718-0.19141-0.019531-0.28906v-0.23047c0.03125-1.2305 0.53125-2.3906 1.3984-3.2617 0.78125-0.78125 1.7812-1.2617 2.8789-1.3711h0.039062c0.10938-0.019531 0.23047-0.019531 0.33984-0.03125h0.03125 0.14062 0.019531c0.10938 0 0.23828 0.011719 0.39062 0.019532h0.019532c1.0781 0.10937 2.1016 0.60156 2.8711 1.3711 0.85938 0.85938 1.3516 2.0117 1.3906 3.2383v0.03125zm-7.3516-26.281c0-1.4219 1.1602-2.5781 2.5781-2.5781 1.4219 0 2.5781 1.1602 2.5781 2.5781 0 1.4219-1.1602 2.5781-2.5781 2.5781-1.4219 0-2.5781-1.1602-2.5781-2.5781zm-11.922 19.031c0-0.078125 0.011719-0.19922 0.058594-0.37891 0.14844-0.60156 0.53906-1.0898 1.1016-1.3984 0.58984-0.32812 1.3086-0.39844 1.9492-0.19141 0.55078 0.17969 0.78125 0.26172 0.82031 0.28125 0.42969 0.17188 0.92188 0.070312 1.25-0.26172 0.32812-0.32812 0.42969-0.82031 0.26172-1.25-0.019531-0.058594-0.12109-0.35938-0.26953-0.82031-0.21094-0.64844-0.14063-1.3594 0.19141-1.9492 0.30859-0.55859 0.80859-0.94922 1.3984-1.1016 0.17188-0.039062 0.30078-0.058594 0.37891-0.058594 1.1602-0.03125 2.3008 0.46875 3.1406 1.3594 1.7617 1.8398 2.7305 3.9297 2.9102 6.2109-1.3984 0.26172-2.6992 0.92188-3.6992 1.9297-1.0195 1.0195-1.6797 2.3008-1.9492 3.6992-2.2695-0.17969-4.3398-1.1484-6.1797-2.8984-0.89062-0.85156-1.3906-2-1.3594-3.1484zm10.262 20.539c-0.87109 0.87891-2.0195 1.3711-3.1484 1.3281-0.12891 0-0.25-0.03125-0.37109-0.058594h-0.019531c-0.58984-0.17187-1.0898-0.55859-1.3906-1.1211-0.32031-0.60156-0.37891-1.3086-0.16016-1.9609 0.21875-0.64844 0.26953-0.78906 0.28125-0.82031 0.17969-0.44141 0.078124-0.94141-0.25-1.2812-0.33984-0.32812-0.82813-0.42969-1.2695-0.25-0.058594 0.019531-0.32031 0.10156-0.51953 0.17188l-0.28125 0.089844c-0.64844 0.19922-1.3594 0.12109-1.9492-0.21094-0.55078-0.30859-0.94141-0.82031-1.0898-1.4219-0.03125-0.12891-0.050781-0.26172-0.050781-0.37891-0.011719-1.1406 0.48828-2.2812 1.3906-3.1211 0.42969-0.39844 0.89062-0.76953 1.3516-1.0898 1.4688-1.0195 3.0703-1.6016 4.7617-1.7305 0.17187 0.89844 0.51172 1.7695 1.0117 2.5195 0.26172 0.41016 0.57812 0.80078 0.94141 1.1602 1.0312 1.0312 2.3203 1.6992 3.7383 1.9609-0.19922 2.2891-1.1914 4.3711-2.9688 6.2109zm7.0117 13.988c0 2.0117-1.6992 3.8789-2.7109 4.8203-0.16016 0.14844-0.41016 0.14844-0.57031 0-1.0117-0.94141-2.7109-2.8086-2.7109-4.8203 0-2.0117 1.6992-3.8789 2.7109-4.8203 0.078125-0.070312 0.17969-0.10938 0.28125-0.10938s0.19922 0.039063 0.28125 0.10938c1.0117 0.94141 2.7109 2.8086 2.7109 4.8203zm10.398-22.941c0.89062 0.85938 1.3789 2.0117 1.3398 3.1484v0.019531c0 0.070313-0.011719 0.19141-0.058593 0.35938-0.16016 0.58984-0.55078 1.0781-1.1016 1.3906-0.60156 0.32812-1.3203 0.39062-1.9609 0.17969-0.58984-0.19922-0.75-0.25-0.78906-0.26953-0.42969-0.19141-0.92969-0.089843-1.2695 0.23047s-0.44922 0.82812-0.28125 1.2695c0 0.011719 0.050781 0.14844 0.26172 0.80859 0.050782 0.17188 0.089844 0.33984 0.10156 0.51953 0.10938 1.1719-0.62891 2.2617-1.7109 2.5312-0.14063 0.03125-0.26953 0.050782-0.39063 0.050782-1.1484 0.019531-2.2812-0.48047-3.1289-1.3906-1.1406-1.2188-1.9609-2.5586-2.4219-3.9805-0.23047-0.69141-0.35938-1.4102-0.42188-2.1484 1.3906-0.26172 2.6719-0.92969 3.6914-1.9492 0.35938-0.35938 0.67969-0.75 0.92969-1.1484 0.51172-0.78125 0.85156-1.6602 1.0195-2.5781 1.9102 0.16016 3.6797 0.87891 5.2812 2.1484 0.30078 0.23047 0.60938 0.5 0.91016 0.80078zm-0.039063-8.4414c-1.8281 1.7305-3.8984 2.6992-6.1602 2.8789-0.26172-1.3906-0.92969-2.6797-1.9492-3.6992-1.0117-1.0117-2.3086-1.6602-3.6992-1.9297 0.17969-2.2812 1.1484-4.3711 2.9219-6.2188 0.85156-0.89062 2-1.3906 3.1719-1.3516 0.10156 0 0.21875 0.019531 0.35938 0.058593 0.60156 0.16016 1.0898 0.55078 1.3984 1.1094 0.32031 0.60156 0.39062 1.3086 0.17188 1.9609-0.14062 0.44141-0.23828 0.73828-0.26953 0.80078-0.17188 0.42969-0.070313 0.92188 0.26172 1.25 0.32812 0.32812 0.82031 0.42969 1.2617 0.26953 0.019531 0 0.16016-0.058594 0.80859-0.26172 0.67188-0.21094 1.4414-0.12109 2.0508 0.26172 0.42969 0.26172 0.73828 0.62891 0.92188 1.0781v0.03125c0.039063 0.070313 0.070313 0.16016 0.089844 0.23828 0.03125 0.14063 0.050781 0.26953 0.050781 0.37891 0.019531 1.1484-0.48047 2.3008-1.3789 3.1406z"/>
<text x="0.0" y="117.5" font-size="5.0" font-weight="bold" font-family="Arbeit Regular, Helvetica, Arial-Unicode, Arial, Sans-serif" fill="#000000">Created by Rafia Rauf</text><text x="0.0" y="122.5" font-size="5.0" font-weight="bold" font-family="Arbeit Regular, Helvetica, Arial-Unicode, Arial, Sans-serif" fill="#000000">from Noun Project</text></svg>