<svg xmlns="http://www.w3.org/2000/svg" version="1.1" viewBox="-5.0 -10.0 110.0 135.0">
 <path d="m96.949 37.211c0-0.51172-0.57812-0.96094-1.0703-1.1211-0.98828-0.30859-2.4297-0.64844-2.7305-0.71094-7.1719-1.3281-12.379-1.8984-20.031-1.7695-10.191 0.17969-18.66 2.8008-23.121 2.8008-4.4609 0-12.93-2.6211-23.121-2.8008-7.6484-0.12891-12.859 0.44141-20.031 1.7695-0.30859 0.058594-1.9883 0.39844-2.9805 0.71094-0.48828 0.16016-0.82031 0.60938-0.82031 1.1211-0.011719 1.1406-0.039063 2.0586-0.050781 3.0391 0 0.39844 0.12891 0.78125 0.35937 1.1016 0.32813 0.44141 0.92969 1.1289 1 1.7188 0.32813 2.8398 0.78906 5.1602 1.0195 6.6094 0.67188 4.1484 2.4883 11.109 5.6914 13.578 4.0195 3.1016 12.422 3.6406 17.77 2.8008 8.8516-1.3789 12.23-5.3398 15.23-13.02 0.67188-1.7188 2.0508-6.7891 2.5195-8.2383 0.55859-1.7109 1.9805-2.6016 3.4102-2.6016 1.4297 0 2.8516 0.89062 3.4102 2.6016 0.46875 1.4492 1.8516 6.5195 2.5195 8.2383 3 7.6797 6.3711 11.641 15.23 13.02 5.3398 0.83984 13.75 0.30078 17.77-2.8008 3.1992-2.4688 5.0195-9.4297 5.6914-13.578 0.23047-1.4414 0.69141-3.7695 1.0195-6.6094 0.070313-0.58984 0.67188-1.2812 1-1.7188 0.23828-0.32031 0.37109-0.69922 0.35938-1.1016-0.011719-0.98047-0.039063-1.8984-0.050782-3.0391zm-55.238 13.41c-1.1406 3.5898-3.4414 8.8398-6.3086 10.5-3.1992 1.8516-10.719 4.0508-18.121 2.0781-5.9414-1.5781-6.5781-4.3281-7.4414-6.7617-1.1406-3.1914-2.3086-9.0898-2.3086-13.43 0-1.2812 0.17969-4.2383 3.1406-5.3516 2.9492-1.1094 9.0781-1.6719 15.711-1.6211 6.6289 0.058594 13.141 1.5117 15.102 3.5117 2.4492 2.5117 1.3008 7.7305 0.23828 11.059zm48.461 5.8281c-0.85938 2.4297-1.5 5.1719-7.4414 6.7617-7.3984 1.9688-14.922-0.23047-18.121-2.0781-2.8711-1.6602-5.1719-6.9102-6.3086-10.5-1.0586-3.3281-2.2109-8.5508 0.23828-11.059 1.9492-2 8.4688-3.4492 15.102-3.5117 6.6289-0.058594 12.762 0.5 15.711 1.6211 2.9492 1.1094 3.1406 4.0703 3.1406 5.3516 0 4.3398-1.1719 10.238-2.3086 13.43z"/>
<text x="0.0" y="117.5" font-size="5.0" font-weight="bold" font-family="Arbeit Regular, Helvetica, Arial-Unicode, Arial, Sans-serif" fill="#000000">Created by Antonis Makriyannis</text><text x="0.0" y="122.5" font-size="5.0" font-weight="bold" font-family="Arbeit Regular, Helvetica, Arial-Unicode, Arial, Sans-serif" fill="#000000">from Noun Project</text></svg>