<svg xmlns="http://www.w3.org/2000/svg" viewBox="0 0 64 80" x="0px" y="0px"><g data-name="17 Jewelry"><g><path d="M15,56H1a1,1,0,0,0-1,1v4a3,3,0,0,0,3,3H13a3,3,0,0,0,3-3V57A1,1,0,0,0,15,56Zm-1,5a1,1,0,0,1-1,1H3a1,1,0,0,1-1-1V58H14Z"/><path d="M13,40H3a3,3,0,0,0-3,3V53a1,1,0,0,0,2,0V43a1,1,0,0,1,1-1H13a1,1,0,0,1,1,1V53a1,1,0,0,0,2,0V43A3,3,0,0,0,13,40Z"/><path d="M4,53a1,1,0,0,0,2,0,2,2,0,0,1,4,0,1,1,0,0,0,2,0,3.982,3.982,0,0,0-1.619-3.195A2.972,2.972,0,0,0,11,48a3,3,0,0,0-6,0,2.972,2.972,0,0,0,.619,1.8A3.982,3.982,0,0,0,4,53Zm3-5a1,1,0,1,1,1,1A1,1,0,0,1,7,48Z"/><path d="M22.8,48.923a19.184,19.184,0,0,1-4.55,9.868A1,1,0,0,0,19.754,60.1a21.173,21.173,0,0,0,5.021-10.9,1,1,0,1,0-1.979-.285Z"/><path d="M50,50.58a2.916,2.916,0,0,0-1.764-2.73,2,2,0,0,1,.393-3.817A2,2,0,0,1,51,46a1,1,0,0,0,2,0,4,4,0,1,0-5.528,3.7A.94.94,0,0,1,48,50.58v.111c-.972,1.431-4,6.07-4,8.309a5,5,0,0,0,10,0c0-2.239-3.028-6.878-4-8.309ZM49,62a3,3,0,0,1-3-3c0-1.092,1.561-3.942,3-6.191,1.439,2.249,3,5.1,3,6.191A3,3,0,0,1,49,62Z"/><path d="M42.083,62H18.65a1,1,0,0,0,0,2H42.083a1,1,0,0,0,0-2Z"/><path d="M40.054,47.906a1,1,0,0,0-.857,1.126,21.191,21.191,0,0,0,1.951,6.441,1,1,0,1,0,1.8-.875,19.212,19.212,0,0,1-1.767-5.835A1,1,0,0,0,40.054,47.906Z"/><path d="M60,50.691V50.58a2.916,2.916,0,0,0-1.764-2.73,2,2,0,0,1,.393-3.817A2,2,0,0,1,61,46a1,1,0,0,0,2,0,4,4,0,1,0-5.528,3.7A.94.94,0,0,1,58,50.58v.113a49.353,49.353,0,0,0-2.688,4.473,1,1,0,0,0,1.777.92c.613-1.185,1.357-2.4,1.914-3.274,1.438,2.25,3,5.1,3,6.188a3,3,0,0,1-3,3,2.955,2.955,0,0,1-1.943-.738,1,1,0,1,0-1.306,1.515A4.98,4.98,0,0,0,64,59C64,56.761,60.972,52.122,60,50.691Z"/><path d="M32,48c15.1,0,23.242-24.89,24.719-29.879A6.8,6.8,0,0,0,57,16.179a6.879,6.879,0,0,0-6.015-6.814l-3-.373h0l-3.723-.464c-.027-.006-.091-.018-.119-.022a.982.982,0,0,0-1.109.807,1.018,1.018,0,0,0,.774,1.164c.034.007.112.022.147.026l2.747.343a14.97,14.97,0,0,1-29.406,0l2.747-.343a7.045,7.045,0,0,0,5.923-5.248L26.781,2H37.219l.814,3.254a6.937,6.937,0,0,0,1.161,2.435,1,1,0,0,0,1.612-1.183,4.988,4.988,0,0,1-.833-1.736l-1-4.012A1,1,0,0,0,38,0H26a1,1,0,0,0-.97.758l-1,4.012A5.033,5.033,0,0,1,19.8,8.518l-6.781.847A6.96,6.96,0,0,0,7.226,18.02C8.543,23.025,15.928,48,32,48ZM42,22.475c.983,1.144,2,2.652,2,3.525a2,2,0,0,1-4,0C40,25.127,41.017,23.619,42,22.475ZM35,31a3,3,0,0,1-6,0c0-1.727,1.784-4.14,3-5.53C33.216,26.86,35,29.273,35,31ZM24,26a2,2,0,0,1-4,0c0-.873,1.017-2.381,2-3.525C22.983,23.619,24,25.127,24,26ZM13.263,11.35l2.05-.257a16.943,16.943,0,0,0,5.509,9.7C19.894,21.809,18,24.12,18,26a4,4,0,0,0,8,0,5.258,5.258,0,0,0-.772-2.429A16.86,16.86,0,0,0,29.9,24.854C28.638,26.406,27,28.834,27,31a5,5,0,0,0,10,0c0-2.166-1.638-4.594-2.9-6.146a16.86,16.86,0,0,0,4.673-1.283A5.258,5.258,0,0,0,38,26a4,4,0,0,0,8,0c0-1.88-1.894-4.191-2.822-5.21a16.943,16.943,0,0,0,5.509-9.7l2.05.257A4.873,4.873,0,0,1,55,16.179a4.816,4.816,0,0,1-.2,1.374C53.4,22.3,45.682,46,32,46,17.4,46,10.412,22.268,9.16,17.51A5.09,5.09,0,0,1,9,16.179,4.873,4.873,0,0,1,13.263,11.35Z"/></g></g><text x="0" y="79" fill="#000000" font-size="5px" font-weight="bold" font-family="'Helvetica Neue', Helvetica, Arial-Unicode, Arial, Sans-serif">Created by Berkah Icon</text><text x="0" y="84" fill="#000000" font-size="5px" font-weight="bold" font-family="'Helvetica Neue', Helvetica, Arial-Unicode, Arial, Sans-serif">from the Noun Project</text></svg>