<svg xmlns="http://www.w3.org/2000/svg" version="1.1" viewBox="-5.0 -10.0 110.0 135.0">
 <path d="m62.48 26.84c-0.67969-0.53125-1.3906-0.96094-2.1289-1.3203 1.1406-0.53906 2.2188-1.2695 3.2109-2.2109 1.2812-1.2109 2-2.8594 1.9609-4.5586 0-0.26953-0.050782-0.55078-0.12109-0.83984-0.28125-1.0898-0.96094-2.0117-1.9219-2.5898-0.78125-0.48047-1.6914-0.71094-2.5898-0.66016 0.050781-0.83984-0.12891-1.6797-0.53906-2.4219-0.57812-1.0586-1.5312-1.8086-2.6914-2.1094-0.28906-0.070312-0.57031-0.10938-0.83984-0.12109-1.6797-0.050781-3.3516 0.64844-4.5586 1.9297-0.96875 1.0117-1.7188 2.1211-2.2812 3.2891-0.55078-1.1602-1.2891-2.2617-2.25-3.2617-1.2109-1.2812-2.8711-1.9805-4.5586-1.9414-0.26953 0-0.55859 0.050781-0.85156 0.12109-1.1484 0.28906-2.1016 1.0391-2.6797 2.0898-0.41016 0.73828-0.60156 1.5898-0.55078 2.4219-0.83984-0.039062-1.6797 0.14062-2.4219 0.55078-1.0508 0.57812-1.8008 1.5391-2.0898 2.6797-0.078125 0.28906-0.12109 0.57812-0.12109 0.85156-0.039062 1.6797 0.67188 3.3398 1.9414 4.5586 1.0117 0.96094 2.1094 1.7109 3.2812 2.25-0.73047 0.33984-1.4297 0.76172-2.1016 1.2617-5.9414 2.4297-11 6.5117-14.648 11.809-3.7617 5.4805-5.75 11.898-5.75 18.57 0 18.09 14.719 32.809 32.809 32.809 18.09 0 32.82-14.719 32.82-32.809 0-6.6602-1.9805-13.07-5.7383-18.539-3.6289-5.3008-8.6797-9.3711-14.602-11.809zm-24.391 2.5781c1.6406-1.5195 3.4805-2.3789 5.4688-2.5508 0.26172 1.2617 0.85938 2.4297 1.7695 3.3398 0.94141 0.94141 2.1094 1.5586 3.3906 1.8086-0.19141 2.0312-1.0898 3.8906-2.6914 5.5391-0.76953 0.78906-1.8008 1.2188-2.8086 1.1914-0.10938 0-0.21875-0.019532-0.33984-0.058594-0.51953-0.14062-0.94922-0.48828-1.2109-0.98047-0.28125-0.51953-0.32812-1.1484-0.14844-1.7109 0.19922-0.57812 0.25-0.71875 0.26172-0.75 0.17969-0.42969 0.078125-0.92969-0.25-1.2617-0.32812-0.32812-0.82031-0.44141-1.2617-0.26953-0.10156 0.039062-0.58984 0.19141-0.73828 0.23828-0.57031 0.17969-1.1914 0.10938-1.7109-0.19141-0.48047-0.26953-0.82031-0.71094-0.94922-1.2383-0.03125-0.12109-0.039063-0.23047-0.039063-0.32813-0.011719-1.0195 0.44141-2.0391 1.25-2.7891zm11.82-8.1406h0.03125 0.12891 0.019532c1.1094 0.019531 2.1484 0.46094 2.9414 1.25 0.76953 0.76953 1.2109 1.8008 1.25 2.8984v0.19141c0 0.10156 0 0.19922-0.011719 0.30078-0.019531 0.25-0.058593 0.5-0.12891 0.73828-0.19141 0.71875-0.57031 1.3789-1.1094 1.9219-0.78125 0.78125-1.8203 1.2305-2.9297 1.25h-0.03125-0.10156c-1.1211-0.011719-2.1797-0.46094-2.9688-1.25-0.71094-0.71094-1.1484-1.6602-1.2305-2.6484v-0.019532c-0.011719-0.078125-0.011719-0.16016-0.019531-0.23047v-0.21094c0.03125-1.1094 0.48047-2.1406 1.25-2.9219 0.78125-0.78125 1.8203-1.2188 2.9219-1.25zm-10.57 16.891c0.078125 0.21875 0.17188 0.44141 0.28125 0.64844 0.57031 1.0586 1.5195 1.8203 2.6484 2.1211 0.28125 0.078125 0.55859 0.12109 0.85938 0.14062h0.21094c1.6094 0 3.1914-0.67969 4.3711-1.8906 0.98047-1.0117 1.75-2.1211 2.3086-3.2891 0.53125 1.1211 1.2617 2.1914 2.1797 3.1719 0.14844 0.16016 0.30078 0.30859 0.46094 0.44922 0.12109 0.10938 0.25 0.19922 0.37109 0.30078 0.039062 0.03125 0.078125 0.070313 0.12109 0.10156 0.17188 0.12109 0.33984 0.23047 0.51953 0.32812h0.011719c0.53125 0.30859 1.0898 0.53125 1.6797 0.66016 0.019531 0 0.039063 0.011719 0.050781 0.011719 0.16016 0.03125 0.30859 0.058594 0.46875 0.078125 0.050782 0 0.10156 0.019531 0.14844 0.019531 0.12109 0.011719 0.23828 0.019531 0.37109 0.019531 0.070312 0 0.14844 0.011719 0.21875 0.011719h0.10156c0.28125 0 0.57031-0.039062 0.85938-0.10938 1.4297-0.35938 2.5391-1.4492 3.0117-2.8086 6.8594 3.8203 11.219 11.141 11.219 19.07 0 12.02-9.7812 21.809-21.809 21.809-12.031 0-21.809-9.7812-21.809-21.809 0-7.8984 4.3281-15.199 11.148-19.031zm23.852-5.8281c0 0.058594-0.011718 0.16016-0.050781 0.30859-0.14062 0.51953-0.48047 0.94141-0.96094 1.2109-0.53125 0.28906-1.1484 0.33984-1.7188 0.16016-0.51172-0.17188-0.67188-0.23047-0.71094-0.23828-0.42969-0.19141-0.92969-0.10156-1.2695 0.23047-0.33984 0.32031-0.44922 0.82812-0.28125 1.2695 0.019531 0.050781 0.089843 0.25 0.23828 0.73828 0.050781 0.14844 0.078125 0.30078 0.089844 0.46094 0.089844 1.0312-0.55078 1.9805-1.5 2.2109-0.12109 0.03125-0.23047 0.039063-0.32812 0.050782-1.0195 0.019531-2.0391-0.42969-2.7891-1.2383-1.0391-1.1094-1.7812-2.3203-2.1992-3.6094-0.089844-0.26953-0.16016-0.55078-0.21875-0.82031-0.019532-0.078125-0.03125-0.17188-0.050782-0.25-0.039062-0.19922-0.070312-0.41016-0.089844-0.62109 0-0.050781-0.011718-0.10938-0.019531-0.16016h0.03125c0.28125-0.058594 0.55078-0.12891 0.80859-0.23047 0.058594-0.019531 0.12109-0.050781 0.17969-0.070312 0.23828-0.089844 0.48047-0.19922 0.71875-0.32031 0.019532-0.011719 0.050782-0.019531 0.070313-0.039063 0.25-0.12891 0.48828-0.28906 0.71875-0.44922 0.058594-0.039063 0.10938-0.078125 0.16016-0.12109 0.23047-0.17969 0.44922-0.35938 0.66016-0.57031 0.92969-0.92969 1.5312-2.1094 1.7812-3.3789 1.6992 0.16016 3.2812 0.80078 4.7188 1.9414 0.26953 0.21094 0.55078 0.46094 0.82812 0.71875 0.80078 0.76953 1.2305 1.8008 1.1914 2.8203v0.019531zm-9.2383-18.781c0.76172-0.80078 1.7891-1.2383 2.8086-1.2109 0.10156 0 0.21094 0.019532 0.32812 0.050782 0.51953 0.14062 0.96094 0.48047 1.2188 0.96875 0.28125 0.51953 0.33984 1.1484 0.14844 1.7188-0.12109 0.39062-0.23047 0.69141-0.25 0.75-0.17188 0.42969-0.058593 0.91016 0.26172 1.2383s0.80859 0.42969 1.2383 0.26953c0.058594-0.019531 0.35156-0.12109 0.75-0.23828 0.60156-0.19141 1.25-0.10938 1.8008 0.21875 0.44141 0.26953 0.75 0.69141 0.87891 1.1719 0.03125 0.12109 0.050781 0.23828 0.050781 0.32812 0.019531 1.0312-0.42969 2.0508-1.2305 2.8086-1.6406 1.5508-3.4883 2.4219-5.5 2.6016-0.26172-1.2617-0.87109-2.4219-1.8008-3.3516-0.92969-0.92969-2.0898-1.5391-3.3594-1.8008 0.17969-2.0312 1.0703-3.8789 2.6484-5.5312zm-17.148 5.25c0-0.070313 0.011718-0.17188 0.050781-0.32812 0.12891-0.51953 0.46875-0.94922 0.96094-1.2188 0.51953-0.28906 1.1484-0.35156 1.7109-0.17188 0.46094 0.14844 0.69922 0.23047 0.75 0.25 0.42969 0.17188 0.92188 0.058594 1.25-0.26172 0.32812-0.32812 0.42969-0.82031 0.26172-1.25-0.019531-0.050781-0.10937-0.32031-0.25-0.75-0.17969-0.57031-0.12109-1.1914 0.17188-1.7109 0.26953-0.48828 0.69922-0.82813 1.2305-0.96094 0.14844-0.039062 0.26172-0.050781 0.32812-0.050781 1.0312-0.019531 2.0508 0.42188 2.8086 1.2188 1.5586 1.6406 2.4414 3.5 2.6211 5.5195-1.2617 0.26172-2.4297 0.87109-3.3516 1.8008-0.92188 0.92188-1.5391 2.0898-1.7891 3.3516-2.0195-0.17969-3.8711-1.0586-5.5195-2.6211-0.80078-0.76172-1.2383-1.7891-1.2188-2.8086zm13.199 68.879c-16.809 0-30.48-13.68-30.48-30.48 0-11.031 5.8281-20.949 15.148-26.352-0.10938 0.46094-0.17188 0.92969-0.16016 1.3984 0 0.28125 0.039062 0.57031 0.10938 0.85156 0.28125 1.1484 1.0117 2.1211 2.0586 2.7109 0.39844 0.23047 0.82812 0.37891 1.2695 0.48047-7.4102 4.2812-12.102 12.27-12.102 20.91 0 13.309 10.828 24.141 24.141 24.141 13.309 0 24.141-10.828 24.141-24.141 0-8.6094-4.6484-16.57-12.012-20.859 0.39844-0.089844 0.78906-0.23047 1.1602-0.42969 1.0586-0.57031 1.8008-1.5195 2.1016-2.6484 0.078125-0.30078 0.12891-0.58984 0.12891-0.87109 0-0.23828 0-0.46875-0.019531-0.71094 0-0.070312-0.019531-0.14844-0.03125-0.21875-0.019531-0.16016-0.050781-0.32031-0.078125-0.48047 0-0.039062-0.011718-0.078125-0.019531-0.12109 9.3086 5.4102 15.121 15.328 15.121 26.34 0 16.809-13.68 30.48-30.488 30.48z"/>
<text x="0.0" y="117.5" font-size="5.0" font-weight="bold" font-family="Arbeit Regular, Helvetica, Arial-Unicode, Arial, Sans-serif" fill="#000000">Created by Rafia Rauf</text><text x="0.0" y="122.5" font-size="5.0" font-weight="bold" font-family="Arbeit Regular, Helvetica, Arial-Unicode, Arial, Sans-serif" fill="#000000">from Noun Project</text></svg>