<svg xmlns="http://www.w3.org/2000/svg" xmlns:xlink="http://www.w3.org/1999/xlink" version="1.1" x="0px" y="0px" viewBox="0 0 128 160" style="enable-background:new 0 0 128 128;" xml:space="preserve"><g><path d="M30,84c1.654,0,3-1.346,3-3s-1.346-3-3-3s-3,1.346-3,3S28.346,84,30,84z M30,80c0.551,0,1,0.449,1,1s-0.449,1-1,1   s-1-0.449-1-1S29.449,80,30,80z"/><path d="M40,84c1.654,0,3-1.346,3-3s-1.346-3-3-3s-3,1.346-3,3S38.346,84,40,84z M40,80c0.551,0,1,0.449,1,1s-0.449,1-1,1   s-1-0.449-1-1S39.449,80,40,80z"/><path d="M105,75c0-0.737-0.405-1.375-1-1.722V36c0-9.644-4.406-18.603-12.406-25.226C84.091,4.562,74.034,1,64,1   s-20.091,3.562-27.594,9.774C28.406,17.397,24,26.356,24,36v37.278c-0.595,0.347-1,0.985-1,1.722v12.741   c0,0.054,0.016,0.105,0.02,0.159C23.017,87.934,23,87.964,23,88c0,0.208,0.078,0.39,0.187,0.55   c0.024,0.053,0.036,0.111,0.065,0.162l4.891,8.802c0.398,0.664,1.125,1.107,1.857,1.326v6.345c-1.161,0.414-2,1.514-2,2.816v10   c0,1.302,0.839,2.402,2,2.816V124c0,1.654,1.346,3,3,3h4c1.654,0,3-1.346,3-3v-3.184c1.161-0.414,2-1.514,2-2.816v-10   c0-1.302-0.839-2.402-2-2.816v-6.346c0.733-0.221,1.464-0.669,1.874-1.353l4.874-8.773c0.029-0.051,0.041-0.109,0.065-0.162   C46.922,88.39,47,88.208,47,88c0-0.036-0.017-0.066-0.02-0.1c0.004-0.053,0.02-0.105,0.02-0.159V75c0-0.737-0.405-1.375-1-1.722V22   c0-1.747,0.221-3.415,0.602-5h34.797C81.779,18.585,82,20.253,82,22v51.278c-0.595,0.347-1,0.985-1,1.722v12.741   c0,0.054,0.016,0.105,0.02,0.159C81.017,87.934,81,87.964,81,88c0,0.208,0.078,0.39,0.187,0.55   c0.024,0.053,0.036,0.111,0.065,0.162l4.891,8.802c0.398,0.664,1.125,1.107,1.857,1.326v6.345c-1.161,0.414-2,1.514-2,2.816v10   c0,1.302,0.839,2.402,2,2.816V124c0,1.654,1.346,3,3,3h4c1.654,0,3-1.346,3-3v-3.184c1.161-0.414,2-1.514,2-2.816v-10   c0-1.302-0.839-2.402-2-2.816v-6.346c0.733-0.221,1.464-0.669,1.874-1.353l4.874-8.773c0.029-0.051,0.041-0.109,0.065-0.162   C104.922,88.39,105,88.208,105,88c0-0.036-0.017-0.066-0.02-0.1c0.004-0.053,0.02-0.105,0.02-0.159V75z M83,87V75h20v12H83z    M102,48v2H84v-2H102z M89.699,46L93,40.059L96.301,46H89.699z M102,52v2.103c-0.981,0.208-1.602,0.7-2.123,1.116   C99.291,55.689,98.903,56,98.005,56c-0.899,0-1.287-0.311-1.875-0.781C95.451,54.676,94.606,54,93.005,54s-2.446,0.676-3.125,1.219   C89.292,55.689,88.903,56,88.003,56c-0.9,0-1.289-0.311-1.877-0.781c-0.521-0.417-1.143-0.908-2.126-1.116V52H102z M84.877,56.781   C85.556,57.324,86.401,58,88.003,58s2.447-0.676,3.126-1.219C91.717,56.311,92.105,56,93.005,56c0.899,0,1.288,0.311,1.875,0.781   C95.56,57.324,96.404,58,98.005,58c1.6,0,2.444-0.676,3.123-1.219c0.31-0.249,0.569-0.448,0.873-0.585V60H84v-3.805   C84.305,56.332,84.565,56.532,84.877,56.781z M102,62v2H84v-2H102z M96.301,66L93,71.941L89.699,66H96.301z M91.3,73H84.7   l3.3-5.941L91.3,73z M98,67.059L101.3,73H94.7L98,67.059z M99.699,66H102v4.141L99.699,66z M102,46h-2.301L102,41.859V46z    M98,44.941L94.7,39h6.601L98,44.941z M88,44.941L84.7,39H91.3L88,44.941z M86.301,46H84v-4.141L86.301,46z M84,66h2.301L84,70.141   V66z M102,36v1H84V22c0-7.535-3.406-13.904-8.773-17.59C92.015,8.82,102,22.843,102,36z M52.773,4.41C47.406,8.096,44,14.465,44,22   v15H26v-1C26,22.843,35.985,8.82,52.773,4.41z M45,87H25V75h20V87z M35,71.941L31.699,66h6.601L35,71.941z M40,67.059L43.3,73H36.7   L40,67.059z M33.3,73H26.7l3.3-5.941L33.3,73z M26,64v-2h18v2H26z M26,60v-3.804c0.304,0.137,0.562,0.336,0.873,0.585   C27.551,57.324,28.396,58,29.995,58c1.601,0,2.445-0.676,3.124-1.219C33.707,56.311,34.095,56,34.995,56   c0.9,0,1.288,0.311,1.876,0.781C37.55,57.324,38.396,58,39.997,58s2.447-0.676,3.126-1.219c0.312-0.249,0.572-0.449,0.877-0.586V60   H26z M41.874,55.219C41.286,55.689,40.897,56,39.997,56c-0.9,0-1.289-0.311-1.877-0.781C37.441,54.676,36.596,54,34.995,54   s-2.446,0.676-3.125,1.219C31.282,55.689,30.894,56,29.995,56c-0.898,0-1.286-0.311-1.873-0.781   c-0.52-0.416-1.141-0.908-2.123-1.116V52h18v2.103C43.017,54.31,42.395,54.802,41.874,55.219z M26,50v-2h18v2H26z M31.699,46   L35,40.059L38.301,46H31.699z M36.7,39H43.3L40,44.941L36.7,39z M30,44.941L26.7,39H33.3L30,44.941z M28.301,46H26v-4.141   L28.301,46z M26,66h2.301L26,70.141V66z M41.699,66H44v4.141L41.699,66z M44,46h-2.301L44,41.859V46z M38,99v6h-6v-6H38z M31,107h8   c0.551,0,1,0.449,1,1v1H30v-1C30,107.449,30.449,107,31,107z M30,111h10v4H30V111z M37,125h-4c-0.551,0-1-0.449-1-1v-3h6v3   C38,124.551,37.551,125,37,125z M39,119h-8c-0.551,0-1-0.449-1-1v-1h10v1C40,118.551,39.551,119,39,119z M40.143,96.486   C40.006,96.712,39.441,97,39,97h-8c-0.441,0-1.006-0.288-1.126-0.486L25.7,89h18.601L40.143,96.486z M47.19,15   C49.725,7.841,56.108,3,64,3s14.275,4.841,16.81,12H47.19z M96,99v6h-6v-6H96z M89,107h8c0.551,0,1,0.449,1,1v1H88v-1   C88,107.449,88.449,107,89,107z M88,111h10v4H88V111z M95,125h-4c-0.551,0-1-0.449-1-1v-3h6v3C96,124.551,95.551,125,95,125z    M97,119h-8c-0.551,0-1-0.449-1-1v-1h10v1C98,118.551,97.551,119,97,119z M98.143,96.486C98.006,96.712,97.441,97,97,97h-8   c-0.441,0-1.006-0.288-1.126-0.486L83.7,89h18.601L98.143,96.486z"/><path d="M98,78c-1.654,0-3,1.346-3,3s1.346,3,3,3s3-1.346,3-3S99.654,78,98,78z M98,82c-0.551,0-1-0.449-1-1s0.449-1,1-1   s1,0.449,1,1S98.551,82,98,82z"/><path d="M88,78c-1.654,0-3,1.346-3,3s1.346,3,3,3s3-1.346,3-3S89.654,78,88,78z M88,82c-0.551,0-1-0.449-1-1s0.449-1,1-1   s1,0.449,1,1S88.551,82,88,82z"/></g><text x="0" y="143" fill="#000000" font-size="5px" font-weight="bold" font-family="'Helvetica Neue', Helvetica, Arial-Unicode, Arial, Sans-serif">Created by Amethyst Studio</text><text x="0" y="148" fill="#000000" font-size="5px" font-weight="bold" font-family="'Helvetica Neue', Helvetica, Arial-Unicode, Arial, Sans-serif">from the Noun Project</text></svg>